# xmcd CD database file
#
# Track frame offsets:
#	150
#	30037
#	66137
#	96262
#	128732
#	167215
#	203750
#	240745
#	270917
#	284617
#
# Disc length: 4532 seconds
#
# Revision: 0
# Processed by: cddbd v1.5.1PL0 Copyright (c) Steve Scherf et al.
# Submitted via: CDex 1.51
#
DISCID=8411b20a
DTITLE=Various Artist - Golden Dancefloor Hits Vol. 1
DYEAR=2005
DGENRE=Mix
TTITLE0=Hot Chocolate - Every 1´s a Winner
TTITLE1=John Paul Young - Standing in the Rain
TTITLE2=Precious Wilson - Cry to me
TTITLE3=Mike Anthony - Why can´t we Live together
TTITLE4=Supermax - Lovemachine
TTITLE5=Montana Sextet - Who needs Enemies
TTITLE6=SOS Band - Just be good to me
TTITLE7=David Bowie - Cat People
TTITLE8=Eddy Grant - Do you feel my Love
TTITLE9=Shiela E. - A Love Bizzare
EXTD=YEAR: 2005
EXTT0=
EXTT1=
EXTT2=
EXTT3=
EXTT4=
EXTT5=
EXTT6=
EXTT7=
EXTT8=
EXTT9=
PLAYORDER=
